<svg width="1024" height="1024" viewBox="0 0 1024 1024" fill="none" xmlns="http://www.w3.org/2000/svg">
<path d="M319 477V269.1H458.2V308.4H365.8V351.9H448V391.2H365.8V477H319ZM532.966 477H488.266V319.2H532.966V477ZM537.166 273.6C537.166 281.8 534.466 288.3 529.066 293.1C523.866 297.7 517.666 300 510.466 300C503.266 300 496.966 297.7 491.566 293.1C486.366 288.3 483.766 281.8 483.766 273.6C483.766 265.4 486.366 259 491.566 254.4C496.966 249.6 503.266 247.2 510.466 247.2C517.666 247.2 523.866 249.6 529.066 254.4C534.466 259 537.166 265.4 537.166 273.6ZM573.484 279.9L618.184 272.7V319.2H671.884V356.4H618.184V411.9C618.184 421.3 619.784 428.8 622.984 434.4C626.384 440 633.084 442.8 643.084 442.8C647.884 442.8 652.784 442.4 657.784 441.6C662.984 440.6 667.684 439.3 671.884 437.7L678.184 472.5C672.784 474.7 666.784 476.6 660.184 478.2C653.584 479.8 645.484 480.6 635.884 480.6C623.684 480.6 613.584 479 605.584 475.8C597.584 472.4 591.184 467.8 586.384 462C581.584 456 578.184 448.8 576.184 440.4C574.384 432 573.484 422.7 573.484 412.5V279.9Z" fill="url(#paint0_angular)"/>
<path d="M157.2 588.1C160.8 594.7 164.9 602.9 169.5 612.7C174.3 622.3 179.2 632.8 184.2 644.2C189.4 655.4 194.5 666.9 199.5 678.7C204.5 690.5 209.2 701.6 213.6 712C218 701.6 222.7 690.5 227.7 678.7C232.7 666.9 237.7 655.4 242.7 644.2C247.9 632.8 252.8 622.3 257.4 612.7C262.2 602.9 266.4 594.7 270 588.1H312.6C314.6 601.9 316.4 617.4 318 634.6C319.8 651.6 321.3 669.4 322.5 688C323.9 706.4 325.1 724.9 326.1 743.5C327.3 762.1 328.3 779.6 329.1 796H283.5C282.9 775.8 282.1 753.8 281.1 730C280.1 706.2 278.6 682.2 276.6 658C273 666.4 269 675.7 264.6 685.9C260.2 696.1 255.8 706.3 251.4 716.5C247.2 726.7 243.1 736.5 239.1 745.9C235.1 755.1 231.7 763 228.9 769.6H196.2C193.4 763 190 755.1 186 745.9C182 736.5 177.8 726.7 173.4 716.5C169.2 706.3 164.9 696.1 160.5 685.9C156.1 675.7 152.1 666.4 148.5 658C146.5 682.2 145 706.2 144 730C143 753.8 142.2 775.8 141.6 796H96C96.8 779.6 97.7 762.1 98.7 743.5C99.9 724.9 101.1 706.4 102.3 688C103.7 669.4 105.2 651.6 106.8 634.6C108.6 617.4 110.5 601.9 112.5 588.1H157.2ZM428.538 764.8C432.938 764.8 437.138 764.7 441.138 764.5C445.138 764.3 448.338 764 450.738 763.6V729.7C448.938 729.3 446.238 728.9 442.638 728.5C439.038 728.1 435.738 727.9 432.738 727.9C428.538 727.9 424.538 728.2 420.738 728.8C417.138 729.2 413.938 730.1 411.138 731.5C408.338 732.9 406.138 734.8 404.538 737.2C402.938 739.6 402.138 742.6 402.138 746.2C402.138 753.2 404.438 758.1 409.038 760.9C413.838 763.5 420.338 764.8 428.538 764.8ZM424.938 634C438.138 634 449.138 635.5 457.938 638.5C466.738 641.5 473.738 645.8 478.938 651.4C484.338 657 488.138 663.8 490.338 671.8C492.538 679.8 493.638 688.7 493.638 698.5V791.5C487.238 792.9 478.338 794.5 466.938 796.3C455.538 798.3 441.738 799.3 425.538 799.3C415.338 799.3 406.038 798.4 397.638 796.6C389.438 794.8 382.338 791.9 376.338 787.9C370.338 783.7 365.738 778.3 362.538 771.7C359.338 765.1 357.738 757 357.738 747.4C357.738 738.2 359.538 730.4 363.138 724C366.938 717.6 371.938 712.5 378.138 708.7C384.338 704.9 391.438 702.2 399.438 700.6C407.438 698.8 415.738 697.9 424.338 697.9C430.138 697.9 435.238 698.2 439.638 698.8C444.238 699.2 447.938 699.8 450.738 700.6V696.4C450.738 688.8 448.438 682.7 443.838 678.1C439.238 673.5 431.238 671.2 419.838 671.2C412.238 671.2 404.738 671.8 397.338 673C389.938 674 383.538 675.5 378.138 677.5L372.438 641.5C375.038 640.7 378.238 639.9 382.038 639.1C386.038 638.1 390.338 637.3 394.938 636.7C399.538 635.9 404.338 635.3 409.338 634.9C414.538 634.3 419.738 634 424.938 634ZM534.059 643.6C541.659 641.4 551.459 639.4 563.459 637.6C575.459 635.6 588.059 634.6 601.259 634.6C614.659 634.6 625.759 636.4 634.559 640C643.559 643.4 650.659 648.3 655.859 654.7C661.059 661.1 664.759 668.7 666.959 677.5C669.159 686.3 670.259 696.1 670.259 706.9V796H625.559V712.3C625.559 697.9 623.659 687.7 619.859 681.7C616.059 675.7 608.959 672.7 598.559 672.7C595.359 672.7 591.959 672.9 588.359 673.3C584.759 673.5 581.559 673.8 578.759 674.2V796H534.059V643.6ZM755.419 796H710.719V638.2H755.419V796ZM759.619 592.6C759.619 600.8 756.919 607.3 751.519 612.1C746.319 616.7 740.119 619 732.919 619C725.719 619 719.419 616.7 714.019 612.1C708.819 607.3 706.219 600.8 706.219 592.6C706.219 584.4 708.819 578 714.019 573.4C719.419 568.6 725.719 566.2 732.919 566.2C740.119 566.2 746.319 568.6 751.519 573.4C756.919 578 759.619 584.4 759.619 592.6ZM857.738 764.8C862.138 764.8 866.338 764.7 870.338 764.5C874.338 764.3 877.538 764 879.938 763.6V729.7C878.138 729.3 875.438 728.9 871.838 728.5C868.238 728.1 864.938 727.9 861.938 727.9C857.738 727.9 853.738 728.2 849.938 728.8C846.338 729.2 843.138 730.1 840.338 731.5C837.538 732.9 835.338 734.8 833.738 737.2C832.138 739.6 831.338 742.6 831.338 746.2C831.338 753.2 833.638 758.1 838.238 760.9C843.038 763.5 849.538 764.8 857.738 764.8ZM854.138 634C867.338 634 878.338 635.5 887.138 638.5C895.938 641.5 902.938 645.8 908.138 651.4C913.538 657 917.338 663.8 919.538 671.8C921.738 679.8 922.838 688.7 922.838 698.5V791.5C916.438 792.9 907.538 794.5 896.138 796.3C884.738 798.3 870.938 799.3 854.738 799.3C844.538 799.3 835.238 798.4 826.838 796.6C818.638 794.8 811.538 791.9 805.538 787.9C799.538 783.7 794.938 778.3 791.738 771.7C788.538 765.1 786.938 757 786.938 747.4C786.938 738.2 788.738 730.4 792.338 724C796.138 717.6 801.138 712.5 807.338 708.7C813.538 704.9 820.638 702.2 828.638 700.6C836.638 698.8 844.938 697.9 853.537 697.9C859.338 697.9 864.438 698.2 868.838 698.8C873.438 699.2 877.138 699.8 879.938 700.6V696.4C879.938 688.8 877.638 682.7 873.038 678.1C868.438 673.5 860.438 671.2 849.038 671.2C841.438 671.2 833.938 671.8 826.538 673C819.138 674 812.738 675.5 807.338 677.5L801.638 641.5C804.238 640.7 807.438 639.9 811.238 639.1C815.238 638.1 819.538 637.3 824.138 636.7C828.738 635.9 833.538 635.3 838.538 634.9C843.738 634.3 848.938 634 854.138 634Z" fill="url(#paint1_angular)"/>
<defs>
<radialGradient id="paint0_angular" cx="0" cy="0" r="1" gradientUnits="userSpaceOnUse" gradientTransform="translate(512 352.5) rotate(90) scale(159.5 217)">
<stop stop-color="#0085FF"/>
<stop offset="0.458333" stop-color="#00E0FF"/>
<stop offset="0.958333" stop-color="#00FF85"/>
</radialGradient>
<radialGradient id="paint1_angular" cx="0" cy="0" r="1" gradientUnits="userSpaceOnUse" gradientTransform="translate(511.5 670.5) rotate(90) scale(158.5 433.5)">
<stop stop-color="#0085FF"/>
<stop offset="0.458333" stop-color="#00E0FF"/>
<stop offset="1" stop-color="#00FF66"/>
</radialGradient>
</defs>
</svg>
